<svg version="1.2" xmlns="http://www.w3.org/2000/svg" viewBox="0 0 512 512" width="512" height="512">
	<title>file</title>
	<style>
		.s0 { fill: #000000 } 
	</style>
	<path id="Path 0" fill-rule="evenodd" class="s0" d="m257 8.3c13 0.3 19.9 0.9 27 2.5 5.2 1.1 12.9 3.3 17 4.8 4.1 1.4 11.8 4.8 17 7.5 5.2 2.6 13.3 7.6 18 11 4.7 3.5 11.6 9.5 15.5 13.4 3.9 3.9 9.4 10.2 12.2 14 2.9 3.9 7.5 11 10.2 16 2.8 5 6.4 12.6 8.2 17 1.7 4.4 4.2 12 5.4 17 1.3 5 2.8 13 3.4 18 0.6 4.9 1.1 12.8 1.1 17.5 0 4.7-0.7 13.2-1.6 19-0.9 5.8-2.7 14.3-4 19-1.4 4.7-4.4 12.8-6.8 18-2.3 5.2-14.9 28.3-51.6 93h45c28 0 45.8 0.4 47 1 1.3 0.7 16.3 29.7 84 165v18.5c0 18.3 0 18.5-4.9 23.5h-486.1l-2.5-2.5c-2.5-2.5-2.5-2.6-2.5-39.5l41-82c26.7-53.3 41.7-82.3 43-83 1.2-0.6 19-1 92-1l-23.7-41.8c-13-22.9-25.6-46-27.9-51.2-2.4-5.2-5.4-13.3-6.8-18-1.3-4.7-3.1-13.2-4-19-0.9-5.8-1.6-14.8-1.6-20 0-5.2 0.7-14 1.5-19.5 0.8-5.5 2.6-14 4-19 1.4-5 4.5-13.3 6.8-18.5 2.3-5.2 6.6-13.3 9.5-18 3-4.7 8.4-12.1 12.2-16.5 3.7-4.4 9.9-10.6 13.6-13.7 3.8-3.2 9.6-7.6 12.9-9.9 3.3-2.3 10.1-6.1 15-8.6 5-2.5 12.8-5.8 17.5-7.3 4.7-1.6 12.3-3.5 17-4.4 4.7-1 8.7-1.9 9-2.2 0.2-0.3 8.3-0.3 18-0.1zm-37 21.2c-4.7 1.5-12.1 4.5-16.5 6.7-4.4 2.2-11.1 6.1-15 8.7-3.8 2.5-11 8.6-16 13.6-5 5-11.6 12.8-14.7 17.5-3.1 4.7-7.1 11.7-9.1 15.5-1.9 3.8-4.6 10.6-6.1 15-1.5 4.4-3.4 11.6-4.4 16-1.2 5.6-1.7 12.7-1.7 23.5 0 11.3 0.5 17.8 1.9 24 1 4.7 3 12.1 4.5 16.5 1.6 4.4 4.5 11.4 6.7 15.6 2.1 4.2 26.9 48.4 54.9 98.2 28.1 49.9 51.2 90.7 51.5 90.7 0.3 0 24.3-42.5 53.5-94.3 29.1-51.8 54.6-98 56.6-102.7 2-4.7 4.6-12.1 5.7-16.5 1.2-4.4 2.6-12.1 3.3-17 0.7-5.4 0.9-13.6 0.5-20.5-0.3-6.3-1.3-14.7-2.1-18.5-0.8-3.8-2.4-9.9-3.6-13.5-1.1-3.6-3.9-10.3-6-15-2.2-4.7-6.6-12.3-9.7-17-3.1-4.7-9.7-12.6-14.7-17.5-4.9-5-12.1-11.2-16-13.7-3.9-2.6-10.6-6.4-15-8.6-4.4-2.2-11.8-5.2-16.5-6.7-4.7-1.4-12.8-3.3-18-4.1-5.2-0.7-13.8-1.3-19-1.3-5.2 0.1-13.3 0.7-18 1.4-4.7 0.8-12.3 2.6-17 4zm-151 346.5l80.5 0.1 16.5-64.1h-65zm97 0h63c-5.2-8.9-7.9-13.6-9.3-16.3l-2.7-4.7c-4.9 4.1-7.2 5-9.2 5-2.8-0.1-4.7-1.5-12.1-8.8-4.8-4.8-8.7-9.2-8.7-9.7 0-0.6 2.3-3.1 5.1-5.8 2.7-2.6 5.3-4.7 5.7-4.7 0.4 0 2.6 1.9 4.9 4.3 2.4 2.3 4.4 4 4.7 3.7 0.2-0.3-2.9-6.5-7-13.8l-7.4-13.2h-10.8zm145.7-50.8c-4.1 7.3-7.3 13.5-7.1 13.8 0.3 0.3 2.5-1.4 5-3.8 2.4-2.3 4.8-4.2 5.2-4.2 0.4 0 2.8 2.1 5.4 4.7 2.7 2.7 4.8 5.2 4.8 5.8 0 0.5-3.9 4.9-8.7 9.7-7.4 7.3-9.3 8.7-12 8.8-2.1 0-4.4-0.9-6.3-2.5l-3-2.5c-4.1 7.4-6.8 12.1-8.7 15.2l-3.3 5.8h63l-16.5-64.1-10.3 0.1zm50.8 50.8l80.5-0.1-32-64h-64.7zm-333.5 80h100.5l16.5-64h-85zm117 0h102v-32h16v32h102l-16.5-64.1-75.5 0.1c-11 19.7-13.2 22.7-15.3 23.5-1.8 0.7-3.6 0.7-5.5 0-2-0.8-4.2-3.8-9-12.3l-6.2-11.2h-75.8zm236.5 0h100.5l-32-64h-84.7zm-358.5 31.9h464v-16h-464zm230.8-447.9c4.5 0 11.7 0.4 16 1 4.2 0.6 11.3 2.3 15.7 3.6 4.4 1.4 11.6 4.3 16 6.5 4.4 2.2 10.7 6 14 8.3 3.3 2.3 9.3 7.6 13.3 11.6 3.9 4.1 8.8 9.7 10.8 12.4 1.9 2.8 5.5 8.9 7.9 13.5 2.4 4.7 5.5 12.4 6.9 17 1.3 4.7 3 11.8 3.6 15.8 0.5 4 1 10.5 1 14.5 0 4-0.7 11.3-1.5 16.2-0.8 5-2.5 12-3.6 15.5-1.2 3.6-4 10.1-6.1 14.5-2.2 4.4-5.6 10.3-7.6 13-2 2.8-6.8 8.3-10.6 12.4-3.9 4-10 9.5-13.6 12.1-3.6 2.6-10.1 6.6-14.5 8.8-4.4 2.2-10.9 4.9-14.5 6.1-3.6 1.1-10.5 2.8-15.5 3.6-4.9 0.9-12.2 1.6-16.2 1.5-4 0-10.5-0.4-14.5-1-4-0.6-11.1-2.2-15.8-3.6-4.7-1.4-12.3-4.5-17-6.9-4.7-2.4-10.7-6-13.5-7.9-2.7-2-8.1-6.6-11.9-10.3-3.8-3.7-8.9-9.5-11.4-12.8-2.4-3.3-6.2-9.6-8.4-14-2.2-4.4-4.9-10.4-6-13.5-1-3-2.5-8.4-3.4-12-0.8-3.5-1.8-11.2-2.1-17-0.4-7.7-0.1-13.3 1.2-21 1-5.7 2.8-13.4 4-17 1.2-3.5 4.1-10.1 6.3-14.5 2.2-4.4 6-10.7 8.4-14 2.5-3.3 7.1-8.6 10.4-11.9 3.3-3.2 8.6-7.9 11.9-10.3 3.3-2.5 9.8-6.4 14.5-8.7 4.7-2.4 11.4-5.2 15-6.4 3.6-1.2 10.1-2.8 14.5-3.6 4.4-0.7 11.7-1.4 16.3-1.5zm-19.3 18.6c-3.8 0.9-10.1 3-14 4.6-3.8 1.6-10.1 5-14 7.5-3.8 2.5-10 7.5-13.6 11.1-3.6 3.7-8.6 9.8-11.1 13.6-2.5 3.9-5.8 9.7-7.2 13-1.5 3.3-3.6 9.4-4.7 13.5-1.1 4.2-2.2 12-2.5 17.5-0.4 7.2-0.1 12.8 1.1 19.5 0.9 5.3 3 12.9 4.6 17 1.7 4.2 5.1 10.9 7.7 15 2.6 4.2 7.8 10.7 11.7 14.7 3.9 3.9 10.2 9.1 14 11.6 3.9 2.5 9.7 5.7 13 7.2 3.3 1.5 9.6 3.6 14 4.8 6.4 1.7 10.8 2.2 21.5 2.2 10 0 15.3-0.5 20.5-1.9 3.9-1 9.9-3.1 13.5-4.5 3.6-1.5 9.9-4.9 14-7.5 4.1-2.7 10.5-7.8 14.1-11.5 3.7-3.6 8.8-9.9 11.5-14.1 2.6-4.1 6-10.4 7.4-14 1.5-3.5 3.5-9.6 4.5-13.5 0.9-3.8 2-10.8 2.3-15.5 0.3-4.7 0-12.2-0.7-17-0.7-4.6-2.6-12.3-4.2-17-1.5-4.6-5-12-7.6-16.4-2.9-4.8-8.2-11.4-13.3-16.5-5.2-5.2-11.7-10.4-16.5-13.3-4.4-2.6-11.4-5.9-15.5-7.4-4.1-1.4-10.9-3.2-15-4-4.1-0.7-11.1-1.2-15.5-1.2-4.4 0.1-9.1 0.3-10.5 0.5-1.4 0.2-5.6 1.1-9.5 2zm-126 272.4c0.6 0 3.2 2.1 10.5 9.4l4.9-4.7c2.7-2.6 5.3-4.8 5.7-4.7 0.5 0 3.1 2.1 5.7 4.7 2.6 2.6 4.7 5.2 4.8 5.7 0 0.6-4 5-8.8 9.7-7.7 7.7-9.2 8.8-12.3 8.8-3 0-4.6-1.1-12.3-8.8-4.8-4.7-8.8-9.1-8.9-9.6-0.1-0.6 2-3.1 4.7-5.8 2.7-2.6 5.4-4.8 6-4.7zm272 0c0.6 0 3.2 2.1 10.5 9.4l4.9-4.7c2.7-2.6 5.3-4.8 5.7-4.7 0.5 0 3.1 2.1 5.7 4.7 2.6 2.6 4.7 5.2 4.8 5.7 0 0.6-4 5-8.8 9.7-7.7 7.7-9.2 8.8-12.3 8.8-3 0-4.6-1.1-12.3-8.8-4.8-4.7-8.8-9.1-8.9-9.6-0.1-0.6 2-3.1 4.7-5.8 2.7-2.6 5.4-4.8 6-4.7zm-296 80c0.6 0 3.2 2.1 10.5 9.4l4.9-4.7c2.7-2.6 5.3-4.8 5.7-4.7 0.5 0 3.1 2.1 5.7 4.7 2.6 2.6 4.7 5.2 4.8 5.7 0 0.6-4 5-8.8 9.7-7.7 7.7-9.2 8.8-12.3 8.8-3 0-4.6-1.1-12.3-8.8-4.8-4.7-8.8-9.1-8.9-9.6-0.1-0.6 2-3.1 4.7-5.8 2.7-2.6 5.4-4.8 6-4.7zm104 0c0.6 0 3.2 2.1 10.5 9.4l4.9-4.7c2.7-2.6 5.3-4.8 5.7-4.7 0.5 0 3.1 2.1 5.7 4.7 2.6 2.6 4.7 5.2 4.8 5.7 0 0.6-4 5-8.8 9.7-7.7 7.7-9.2 8.8-12.3 8.8-3 0-4.6-1.1-12.3-8.8-4.8-4.7-8.8-9.1-8.9-9.6-0.1-0.6 2-3.1 4.7-5.8 2.7-2.6 5.4-4.8 6-4.7zm104 0c0.6 0 3.2 2.1 10.5 9.4l4.9-4.7c2.7-2.6 5.3-4.8 5.7-4.7 0.5 0 3.1 2.1 5.7 4.7 2.6 2.6 4.7 5.2 4.8 5.7 0 0.6-4 5-8.8 9.7-7.7 7.7-9.2 8.8-12.3 8.8-3 0-4.6-1.1-12.3-8.8-4.8-4.7-8.8-9.1-8.9-9.6-0.1-0.6 2-3.1 4.7-5.8 2.7-2.6 5.4-4.8 6-4.7zm112 0c0.6 0 3.2 2.1 10.5 9.4l4.9-4.7c2.7-2.6 5.3-4.8 5.7-4.7 0.5 0 3.1 2.1 5.7 4.7 2.6 2.6 4.7 5.2 4.8 5.7 0 0.6-4 5-8.8 9.7-7.7 7.7-9.2 8.8-12.3 8.8-3 0-4.6-1.1-12.3-8.8-4.8-4.7-8.8-9.1-8.9-9.6-0.1-0.6 2-3.1 4.7-5.8 2.7-2.6 5.4-4.8 6-4.7zm-149.5-331.1c3.3 0.1 5.7 2.2 33.8 30.3 27.2 27.2 30.2 30.6 30.2 33.5 0 2.1-0.8 4.1-2.4 5.7-2.1 2.1-3.4 2.5-13.6 2.5v51l-4.9 5h-86.1l-5-5v-51h-5.5c-4.5 0-5.9-0.4-8-2.5-1.8-1.8-2.4-3.4-2.2-5.7 0.2-2.8 4.4-7.4 30.2-33.5 28-28.2 30.3-30.3 33.5-30.3zm-36.5 56h73c-27.9-27.9-36.2-36-36.5-36-0.3 0-8.6 8.1-18.5 18zm4.5 56h8c0-26.5 0.1-27.1 2.5-29.5 2.4-2.5 2.5-2.5 21.5-2.5 18.9 0 19 0 21.5 2.5 2.4 2.5 2.5 3 2.5 16v13.5h8v-40h-64zm24 0h16v-16h-16z"/>
</svg>